<svg width="35" height="44" viewBox="0 0 35 44" fill="none" xmlns="http://www.w3.org/2000/svg">
<path fill-rule="evenodd" clip-rule="evenodd" d="M16.6784 10.1679C16.4166 10.2697 16.2857 10.4151 16.3148 10.5751C16.3584 10.8224 11.0204 18.0367 9.65314 22.4147C9.23133 23.782 9.91496 23.9711 13.0276 23.3747C14.9185 23.0111 14.8457 22.6329 13.5948 26.1528C12.664 28.7418 11.9804 30.909 11.6604 32.2326C11.2241 33.978 12.1404 34.8943 14.4094 32.5235C15.3839 31.5053 17.5947 29.2218 22.7727 23.3165C27.1653 18.3131 27.1507 18.444 23.689 18.3131L21.551 18.2258C22.5546 17.164 26.3071 13.1205 27.4562 12.1751C28.6052 11.2151 28.9689 10.8224 27.4272 10.6042C25.6381 10.3424 19.5874 10.2406 17.8129 10.0806C17.4056 10.037 16.8966 10.0806 16.6784 10.1679ZM25.3035 11.6369L24.5472 12.2623C22.7 13.775 19.0492 18.124 19.0492 18.793C19.0492 19.5203 20.271 19.4475 23.4273 19.4475C18.7729 24.8437 15.1366 29.0473 15.0493 29.0473C15.0202 29.0473 15.3548 28.0873 15.8057 26.8946C17.4929 22.3711 17.5802 21.5275 16.3875 21.6729C14.3221 21.9202 12.3004 22.1966 12.024 22.2838C11.7768 22.3565 11.9367 21.9639 12.8676 20.2185C14.5258 17.0477 15.1948 16.1313 18.1038 11.2878C23.6454 11.5351 23.5872 11.5351 25.3035 11.6369Z" fill="#006B99"/>
</svg>
