<svg width="33" height="50" viewBox="0 0 33 50" fill="none" xmlns="http://www.w3.org/2000/svg">
<path d="M19.3144 22.1445C19.6596 22.1445 19.8943 21.9788 20.129 21.5369C20.9713 19.9629 21.6616 19.8524 22.0345 21.2056C22.4073 22.5311 23.8158 22.6692 23.8158 21.3851C23.8158 19.9629 21.5789 18.8029 19.9771 19.3829C18.7896 19.8247 18.2374 22.1445 19.3144 22.1445Z" fill="#006B99"/>
<path d="M12.8659 29.504C16.5665 31.1471 20.3222 30.65 22.7938 28.1922C25.3897 25.6101 24.3956 22.9176 21.0403 23.4285C20.7226 23.4699 19.7837 23.8151 18.969 24.188C17.3121 24.9336 16.2904 24.9888 13.9982 24.4364C10.2286 23.5527 9.26205 27.9161 12.8659 29.504ZM22.421 24.4917C23.0562 25.2925 22.7662 26.6595 21.7859 27.5847C21.1369 28.1922 21.206 28.2474 20.7641 26.7286C20.5708 26.052 20.3499 25.3616 20.267 25.1821C20.0185 24.5469 21.9792 23.9256 22.421 24.4917ZM18.2787 25.4444C19.0933 25.2235 19.0934 25.2097 19.4661 26.9909C19.8804 28.9516 19.8804 28.9793 19.1762 29.2278C17.8092 29.7111 17.961 29.6835 17.6296 25.6101L18.2787 25.4444ZM14.9786 25.5963H16.5112C16.5112 28.4822 16.5527 28.4408 16.7598 29.4902L16.0142 29.3521C14.8681 29.145 14.9786 29.0621 14.9786 25.5963ZM13.4044 25.1407C13.8877 25.265 14.0949 28.6755 13.6254 28.6755C13.1835 28.6755 12.1617 27.419 12.0236 26.6872C11.8027 25.4859 12.3551 24.8645 13.4044 25.1407Z" fill="#006B99"/>
<path d="M21.855 14.2876C19.6872 13.1968 19.632 13.6111 21.6756 15.5994C28.0686 21.7992 26.3426 31.1333 18.6792 31.8927C12.728 32.4865 8.48894 28.8136 8.59942 23.2904C8.68228 18.8995 11.5681 14.3015 16.3181 13.7491C17.2708 13.6386 17.2984 13.6111 16.8704 13.3763C16.2076 13.0035 14.2745 13.0725 13.1008 13.4868C11.5682 14.0391 10.0078 15.1713 8.7927 16.635C5.74117 20.2803 6.07259 26.0105 8.47515 29.4073C11.4715 33.6463 21.5099 34.3782 25.0308 30.6086C29.4494 25.8863 27.7648 17.2701 21.855 14.2876Z" fill="#006B99"/>
<path d="M11.9132 22.5725C11.9132 21.3437 12.7555 20.8466 13.1559 21.8269C13.6116 22.9177 14.4124 23.2353 14.7162 22.4345C15.2823 20.9708 12.2446 19.5348 10.8776 20.6119C10.3391 21.0399 9.8558 22.2964 10.0491 22.7935C10.2838 23.4148 11.9132 23.2077 11.9132 22.5725Z" fill="#006B99"/>
</svg>
