<svg width="39" height="48" viewBox="0 0 39 48" fill="none" xmlns="http://www.w3.org/2000/svg">
<path fill-rule="evenodd" clip-rule="evenodd" d="M19.6306 9.97028C17.8751 11.459 17.4677 11.6556 15.7402 11.8382C13.4931 12.0769 13.5353 12.0629 13.6195 12.5123C13.7038 12.9899 13.8303 14.8016 13.8724 15.2791C12.187 17.2032 12.1449 17.1189 12.2993 18.2004C12.3555 18.6358 12.2432 22.6806 12.5241 26.4304C12.5943 27.3715 12.9032 27.8068 13.774 28.2562C15.4593 29.0989 16.8498 28.6074 15.5155 27.6383C14.3218 26.7675 14.2094 26.3883 14.0831 22.9334C14.0409 21.8098 13.9425 20.2789 13.8583 19.5205C13.5212 16.515 14.5465 17.765 14.5043 18.0178C14.4201 18.6919 14.7571 19.2256 16.2459 19.9981C17.1448 20.4615 20.5013 22.6103 21.8356 23.0598C23.8159 23.748 24.6304 22.512 29.2932 19.3239C30.15 18.7481 30.7117 18.2284 31.0347 17.7228C31.8493 16.4729 31.9336 22.807 31.1331 25.5035C30.5994 27.3012 30.4449 27.3574 25.3187 27.4838C20.066 27.6102 17.566 27.9473 17.6924 28.3265C18.0014 29.2534 29.6444 29.4641 31.4842 28.5933C32.2988 28.2001 33.1836 26.2057 33.3521 25.2367C33.6049 23.8041 33.619 21.5991 33.3943 18.6638C33.2398 16.5572 33.0291 16.0937 31.8634 15.0544C31.4561 14.6892 31.428 14.0011 31.7931 12.6247C31.9336 12.091 32.1162 11.2343 30.8381 11.2343C29.5601 11.2343 27.5096 11.3185 27.1584 11.3185C26.6528 11.0096 24.5603 9.81575 24.1951 9.4506C23.8721 9.1978 21.9058 8.04616 19.6306 9.97028ZM24.1951 10.7568C24.6726 11.0657 25.0658 11.3326 25.0658 11.3747C25.0658 11.4028 23.858 11.4309 22.3833 11.4309C19.5182 11.4309 19.4621 11.4028 20.4593 10.7848C21.8918 9.87195 22.8047 9.87195 24.1951 10.7568ZM30.1921 16.7116C30.0797 17.2734 29.4758 17.5262 29.0685 17.2032C28.7736 16.9785 28.4927 16.9223 27.3551 16.9223C27.004 16.9223 20.9648 16.8942 18.184 17.0909C15.7402 17.2594 17.0464 18.2284 18.3385 18.397C19.42 18.5374 28.1276 18.2004 27.959 18.4672C27.8748 18.6077 25.122 20.6301 23.3103 22.1047C22.9311 21.9081 15.8667 18.3127 15.5998 18.3127C15.3611 18.3127 15.1925 12.8634 15.2066 12.8494C15.2487 12.7932 23.4085 12.5685 30.1078 12.5685C30.3325 14.6471 30.4589 15.3634 30.1921 16.7116ZM23.3384 14.5909C22.4536 15.4757 23.4226 15.8128 26.6669 15.7566C29.5741 15.7004 29.7988 15.6443 29.2371 14.9982C28.7455 14.4083 23.844 14.0713 23.3384 14.5909Z" fill="#006B99"/>
</svg>
