<svg width="33" height="48" viewBox="0 0 33 48" fill="none" xmlns="http://www.w3.org/2000/svg">
<path d="M28.6133 21.5536C27.585 15.213 23.1762 10.5549 19.2503 11.661C18.4246 11.8947 17.7703 12.44 15.1375 15.1663C13.7665 16.584 13.3459 16.9267 13.1122 16.8488C10.5573 15.8518 8.95264 17.0981 8.96818 20.0893C8.96818 21.6783 9.04614 22.0989 9.56023 23.7036C9.70045 24.1242 7.92439 25.7755 5.69662 28.1279C3.90505 29.7637 5.79008 30.2623 8.48527 29.3899C13.1278 27.8943 12.4111 27.9566 14.0157 28.8602C16.6486 30.3402 20.076 30.8854 21.6339 30.0754C21.9455 29.9195 22.1169 29.5924 22.0857 29.2341C22.0857 29.2185 21.9455 27.6918 21.9455 27.7073C24.0798 26.8505 26.6503 25.9781 27.8655 25.1056C29.0806 24.2177 28.9092 23.3608 28.6133 21.5536ZM8.46973 27.941C8.29833 27.941 10.3392 25.6976 10.4794 25.5419C10.5105 25.7288 10.9468 26.4299 11.5699 26.8505C11.5855 26.9284 8.75017 27.941 8.46973 27.941ZM24.2511 24.5292C23.3787 24.7318 20.6368 25.8223 19.671 26.3675C18.9699 26.757 18.9387 26.8038 19.0322 27.3023C19.3749 29.2029 19.4684 29.0939 17.8171 28.6732C14.0781 27.7074 9.74717 20.3696 11.4609 17.8926C11.9438 17.1916 12.6137 18.0795 12.6605 19.4973C12.7072 20.9928 14.0313 23.4543 14.9661 24.0619C15.5114 24.4202 15.7917 23.984 15.6515 23.7036C13.8444 20.3697 14.1404 19.4817 14.265 18.9832C14.265 18.9832 18.2377 14.9638 18.5649 14.6054C19.7644 13.328 20.8238 13.2657 21.9922 14.3874C24.1421 16.4749 25.7935 19.7932 26.2141 22.8311C26.3076 23.6413 25.6533 24.2177 24.2511 24.5292Z" fill="#006B99"/>
<path d="M24.3603 22.1614C22.5688 23.1117 19.0011 16.5062 20.6525 15.3066C21.4003 14.7614 20.2474 14.0915 19.6242 14.7925C18.5805 15.9765 19.5932 22.4574 23.8929 23.2052C24.6719 23.3454 25.3106 23.2052 25.373 22.6755C25.4353 22.2237 24.8433 21.8965 24.3603 22.1614Z" fill="#006B99"/>
</svg>
