<svg width="33" height="50" viewBox="0 0 33 50" fill="none" xmlns="http://www.w3.org/2000/svg">
<path d="M19.3144 22.1445C19.6596 22.1445 19.8943 21.9788 20.129 21.5369C20.9713 19.9629 21.6617 19.8524 22.0345 21.2056C22.4073 22.5311 23.8158 22.6692 23.8158 21.3851C23.8158 19.9629 21.5789 18.8029 19.9771 19.3829C18.7896 19.8247 18.2374 22.1445 19.3144 22.1445Z" fill="#006B99"/>
<path d="M12.866 29.504C16.5665 31.1471 20.3222 30.65 22.7939 28.1922C25.3898 25.6101 24.3957 22.9176 21.0403 23.4285C20.7227 23.4699 19.7838 23.8151 18.9691 24.188C17.3122 24.9336 16.2904 24.9888 13.9983 24.4364C10.2287 23.5527 9.26211 27.9161 12.866 29.504ZM22.4211 24.4917C23.0563 25.2925 22.7663 26.6595 21.7859 27.5847C21.137 28.1922 21.206 28.2474 20.7641 26.7286C20.5708 26.052 20.3499 25.3616 20.2671 25.1821C20.0185 24.5469 21.9793 23.9256 22.4211 24.4917ZM18.2787 25.4444C19.0934 25.2235 19.0934 25.2097 19.4662 26.9909C19.8805 28.9516 19.8805 28.9793 19.1762 29.2278C17.8092 29.7111 17.9611 29.6835 17.6297 25.6101L18.2787 25.4444ZM14.9786 25.5963H16.5113C16.5113 28.4822 16.5528 28.4408 16.7599 29.4902L16.0142 29.3521C14.8682 29.145 14.9786 29.0621 14.9786 25.5963ZM13.4045 25.1407C13.8878 25.265 14.0949 28.6755 13.6255 28.6755C13.1836 28.6755 12.1618 27.419 12.0237 26.6872C11.8028 25.4859 12.3551 24.8645 13.4045 25.1407Z" fill="#006B99"/>
<path d="M21.855 14.2876C19.6872 13.1968 19.632 13.6111 21.6755 15.5994C28.0686 21.7992 26.3426 31.1333 18.6792 31.8927C12.728 32.4865 8.48892 28.8136 8.59941 23.2904C8.68226 18.8995 11.5681 14.3015 16.318 13.7491C17.2708 13.6386 17.2984 13.6111 16.8704 13.3763C16.2076 13.0035 14.2745 13.0725 13.1008 13.4868C11.5681 14.0391 10.0078 15.1713 8.79269 16.635C5.74116 20.2803 6.07257 26.0105 8.47513 29.4073C11.4715 33.6463 21.5098 34.3782 25.0308 30.6086C29.4494 25.8863 27.7648 17.2701 21.855 14.2876Z" fill="#006B99"/>
<path d="M11.9133 22.5725C11.9133 21.3437 12.7555 20.8466 13.156 21.8269C13.6116 22.9177 14.4125 23.2353 14.7162 22.4345C15.2824 20.9708 12.2446 19.5348 10.8776 20.6119C10.3392 21.0399 9.85585 22.2964 10.0492 22.7935C10.2839 23.4148 11.9133 23.2077 11.9133 22.5725Z" fill="#006B99"/>
</svg>
